<?xml version="1.0" standalone="no"?><!DOCTYPE svg PUBLIC "-//W3C//DTD SVG 1.1//EN" "http://www.w3.org/Graphics/SVG/1.1/DTD/svg11.dtd"><svg t="1608557314096" class="icon" viewBox="0 0 1024 1024" version="1.1" xmlns="http://www.w3.org/2000/svg" p-id="1297" xmlns:xlink="http://www.w3.org/1999/xlink" width="200" height="200"><defs><style type="text/css"></style></defs><path d="M796 231.2c-155.5-155.5-408.5-155.5-564 0s-155.5 408.5 0 564 408.5 155.5 564 0 155.6-408.5 0-564zM765.8 765C627 903.9 401 903.9 262.2 765c-138.9-138.9-138.9-364.8 0-503.6s364.8-138.9 503.6 0 138.9 364.8 0 503.6z" p-id="1298"></path><path d="M544.2 513.2L697 360.4c8.3-8.3 8.3-21.9 0-30.2s-21.9-8.3-30.2 0L514 483 361.2 330.2c-8.3-8.3-21.9-8.3-30.2 0s-8.3 21.9 0 30.2l152.8 152.8L331 665.9c-8.3 8.3-8.3 21.9 0 30.2s21.9 8.3 30.2 0L514 543.4l152.8 152.8c8.3 8.3 21.9 8.3 30.2 0s8.3-21.9 0-30.2L544.2 513.2z" p-id="1299"></path></svg>